<?xml version="1.0" encoding="UTF-8"?>
<svg width="101px" height="31px" viewBox="0 0 101 31" version="1.1" xmlns="http://www.w3.org/2000/svg" xmlns:xlink="http://www.w3.org/1999/xlink">
    <!-- Generator: Sketch 54.1 (76490) - https://sketchapp.com -->
    <title>IV/sontraLetteringMono Copy</title>
    <desc>Created with Sketch.</desc>
    <defs>
        <path d="M61.2529063,21.1422014 L57.4912115,13.53462 L57.4912115,21.1422014 L55.023509,21.1422014 L55.023509,9.57446809 L58.1986677,9.57446809 L61.9777886,17.5469636 L61.9777886,9.57446809 L64.3927878,9.57446809 L64.3927878,21.1422014 L61.2529063,21.1422014 Z M52.8358989,13.1175142 L52.8358989,17.9461017 C52.8358989,19.7002988 51.6281868,21.4893617 48.3841739,21.4893617 C45.1399484,21.4893617 43.9320238,19.7002988 43.9320238,17.9461017 L43.9320238,13.1175142 C43.9320238,11.3633171 45.1399484,9.57446809 48.3841739,9.57446809 C51.6281868,9.57446809 52.8358989,11.3633171 52.8358989,13.1175142 Z M50.2477015,17.7204368 L50.2477015,13.343393 C50.2477015,12.4403056 49.6781663,11.8845923 48.3841739,11.8845923 C47.0897564,11.8845923 46.5202212,12.4403056 46.5202212,13.343393 L46.5202212,17.7204368 C46.5202212,18.6235242 47.0897564,19.1794514 48.3841739,19.1794514 C49.6781663,19.1794514 50.2477015,18.6235242 50.2477015,17.7204368 Z M41.750364,18.067811 C41.750364,20.3603954 41.0082682,21.4893617 37.5398414,21.4893617 C36.2112094,21.4893617 34.813298,21.1941792 33.8297872,20.7426354 L34.2611889,18.7276937 C35.3139789,19.057742 36.3835575,19.2836208 37.5742686,19.2836208 C38.9031131,19.2836208 39.1619541,19.0230902 39.1619541,18.0502712 C39.1619541,17.0083624 39.1101009,16.886653 37.2291472,16.4697612 C34.4509631,15.8618563 34.0369875,15.306143 34.0369875,12.8050057 C34.0369875,10.4948815 34.8479376,9.57446809 38.0056702,9.57446809 C39.006607,9.57446809 40.2145317,9.67863758 41.491523,9.95649419 L41.2326821,12.1449091 C39.9212635,11.9192442 39.0756738,11.8148608 38.0403098,11.8148608 C36.8840259,11.8148608 36.6251849,12.0234137 36.6251849,12.8743095 C36.6251849,13.9861637 36.6770381,14.0032757 38.4889251,14.4374935 C41.5950169,15.1844337 41.750364,15.7923386 41.750364,18.067811 Z M66.5946363,11.9538961 L66.5946363,9.57446809 L75.8157935,9.57446809 L75.8157935,11.9538961 L72.6340469,11.9538961 L72.6340469,21.4893617 L69.9682822,21.4893617 L69.9682822,11.9538961 L66.5946363,11.9538961 Z M84.2230254,14.1545033 L84.2230254,13.206069 C84.2230254,12.3115375 83.8851295,11.9538961 82.8008875,11.9538961 L80.6857443,11.9538961 L80.6857443,15.4603652 L82.8008875,15.4603652 C83.9384703,15.4603652 84.2230254,15.0488209 84.2230254,14.1545033 Z M84.8626899,21.4893617 L82.2500535,17.7861042 L80.6857443,17.7861042 L80.6857443,21.4893617 L78.0197671,21.4893617 L78.0197671,9.57446809 L82.9430588,9.57446809 C85.8226117,9.57446809 86.8890025,10.7194769 86.8890025,12.9558055 L86.8890025,14.4227344 C86.8890025,15.9076309 86.3560196,16.9095404 85.1650961,17.4102812 L88.4288727,21.4893617 L84.8626899,21.4893617 Z M89.2094334,21.4893617 L92.8191814,9.57446809 L96.374101,9.57446809 L100,21.4893617 L97.2271287,21.4893617 L96.5872517,19.1636227 L92.6236693,19.1636227 L91.9837923,21.4893617 L89.2094334,21.4893617 Z M94.5966412,11.9359284 L93.2280567,16.9272941 L95.9473746,16.9272941 L94.5966412,11.9359284 Z M2.67382212,19.2888107 L0.96082414,17.5757548 L0.96082414,17.5729961 C0.320416177,16.9323428 1.42108547e-14,16.0896684 1.42108547e-14,15.2486916 C1.42108547e-14,14.4077148 0.320416177,13.5650404 0.96082414,12.9243871 L0.96082414,12.9214162 L12.922533,0.959513624 L12.9240183,0.960999074 C13.2667151,0.618496798 13.6684024,0.367455786 14.0972508,0.208088246 C14.5443481,0.0421422862 15.0173333,-0.0244907464 15.4803453,0.00797694149 L15.4835282,0.00797694149 C15.8712106,0.0353516587 16.2552856,0.131057065 16.6145337,0.294244333 L16.6172922,0.29742744 C16.9655061,0.455733944 17.2903784,0.676853753 17.5732359,0.959513624 L17.5762066,0.959513624 L21.9323813,5.31591339 L21.9323813,4.12606812 L28.6390526,10.7344097 L27.9923184,11.3761638 L29.4642834,12.8482048 C30.1049035,13.488858 30.4255319,14.3325935 30.4255319,15.1754801 C30.4255319,16.0183668 30.1049035,16.8618901 29.4644956,17.5023311 L17.5029989,29.4644459 L17.5002404,29.4644459 C16.8596202,30.104887 16.0169893,30.4255319 15.1762682,30.4255319 C14.3353349,30.4255319 13.492704,30.104887 12.8520839,29.4644459 L12.8491131,29.4644459 L8.49315066,25.1083361 L8.49315066,26.7774795 L1.78669153,20.1691379 L2.67382212,19.2888107 Z M3.76672858,18.2042858 L8.49315066,13.5141107 C8.49315066,14.7309062 9.28676424,16.6545637 11.1676709,16.6545637 C12.7010002,16.6545637 13.5822508,16.6530783 15.1155801,16.6530783 L15.1155801,16.6564736 C15.1626877,16.6545637 15.2100074,16.6530783 15.2577515,16.6530783 C17.0881555,16.6530783 18.5718309,18.1826671 18.5718309,20.0694005 C18.5718309,21.9561339 17.0881555,23.4857228 15.2577515,23.4857228 C15.2100074,23.4857228 15.1626877,23.4844495 15.1155801,23.4823275 L15.1155801,23.4857228 L9.04808122,23.4857228 L13.9378915,28.3756112 L13.9364062,28.3770967 C14.2761322,28.7157792 14.7255636,28.8855449 15.1762682,28.8855449 C15.6267606,28.8855449 16.0761921,28.7157792 16.4157059,28.3770967 L16.4142205,28.3756112 L28.3757172,16.4134964 C28.7154432,16.0737528 28.8854123,15.6247226 28.8854123,15.1754801 C28.8854123,14.7260255 28.715231,14.276783 28.375505,13.9370394 L26.8993037,12.4607619 L21.9323813,17.3894369 C21.9323813,16.1726414 21.1387677,14.2489839 19.2578611,14.2489839 C17.7245317,14.2489839 16.8432811,14.2504694 15.3099518,14.2504694 L15.3099518,14.247074 C15.2628442,14.2489839 15.2155245,14.2504694 15.1677804,14.2504694 C13.3375886,14.2504694 11.853701,12.7208805 11.853701,10.8341471 C11.853701,8.94741367 13.3375886,7.41782482 15.1677804,7.41782482 C15.2155245,7.41782482 15.2628442,7.41931027 15.3099518,7.42122013 L15.3099518,7.41782482 L21.8566272,7.41782482 L16.4874282,2.04834831 L16.4889136,2.04686286 C16.3369811,1.89555919 16.1651023,1.77778424 15.9832502,1.69459905 L15.9826136,1.6958723 C15.7890907,1.60801855 15.5826238,1.55645222 15.375096,1.54180993 L15.375096,1.54159773 C15.120885,1.52419674 14.8668862,1.55899871 14.6326217,1.64600363 C14.4059962,1.73003764 14.1931635,1.86330371 14.0113114,2.04537741 L14.0113114,2.04834831 L2.04960256,14.0102509 L2.04832938,14.0089777 C1.70945214,14.348509 1.53990742,14.7979637 1.53990742,15.2486916 C1.53990742,15.6994195 1.70945214,16.1488742 2.04832938,16.4884055 L2.04960256,16.4871323 L3.76672858,18.2042858 Z" id="path-1"></path>
    </defs>
    <g id="WIREFRAME" stroke="none" stroke-width="1" fill="none" fill-rule="evenodd">
        <g id="Desktop-HD" transform="translate(-292.000000, -19.000000)">
            <g id="1---TOPBAR">
                <g id="IV/sontraLetteringMono-Copy" transform="translate(292.500000, 19.000000)">
                    <mask id="mask-2" fill="white">
                        <use xlink:href="#path-1"></use>
                    </mask>
                    <use id="Combined-Shape" fill="#FFFFFF" fill-rule="evenodd" xlink:href="#path-1"></use>
                    <g id="colors/White" mask="url(#mask-2)" fill="#FFFFFF" fill-rule="evenodd">
                        <rect id="Light-blue-" x="0" y="0" width="100" height="31"></rect>
                    </g>
                </g>
            </g>
        </g>
    </g>
</svg>